<?xml version="1.0" standalone="no"?><!DOCTYPE svg PUBLIC "-//W3C//DTD SVG 1.1//EN" "http://www.w3.org/Graphics/SVG/1.1/DTD/svg11.dtd"><svg t="1502082142248" class="icon" style="" viewBox="0 0 1024 1024" version="1.1" xmlns="http://www.w3.org/2000/svg" p-id="3542" xmlns:xlink="http://www.w3.org/1999/xlink" width="14" height="14"><defs><style type="text/css"></style></defs><path d="M1014.649733 822.650054l-0.012-0.01L703.997489 511.99381l310.640244-310.646244 0.012-0.01a31.761616 31.761616 0 0 0 7.311912-11.415862c4.245949-11.375862 1.823978-24.681702-7.323912-33.829591L867.893507 9.347887c-9.147889-9.145889-22.449729-11.56586-33.827591-7.319912a31.825615 31.825615 0 0 0-11.417862 7.309912c0 0.004-0.004 0.006-0.008 0.01L511.99581 319.996131 201.351566 9.349887l-0.01-0.01a31.793616 31.793616 0 0 0-11.413862-7.309912c-11.379862-4.247949-24.681702-1.825978-33.829591 7.319912L9.351887 156.096113C0.203998 165.244002-2.215973 178.547841 2.029975 189.923704a31.815615 31.815615 0 0 0 7.311912 11.415862l0.01 0.01L319.998131 511.99381 9.351887 822.642054l-0.008 0.01a31.859615 31.859615 0 0 0-7.313912 11.413862c-4.247949 11.375862-1.825978 24.681702 7.321912 33.829591l146.746226 146.744226c9.149889 9.147889 22.451729 11.56786 33.829591 7.321912a31.833615 31.833615 0 0 0 11.415862-7.311912l0.01-0.01 310.644244-310.646244 310.644244 310.646244 0.012 0.008a31.819615 31.819615 0 0 0 11.413862 7.313912c11.377862 4.245949 24.683702 1.825978 33.827591-7.321912l146.744226-146.746226c9.147889-9.147889 11.56986-22.453729 7.323912-33.829591a31.803615 31.803615 0 0 0-7.313912-11.413862z" fill="#e6e6e6" p-id="3543"></path></svg>